<svg width="30" height="31" viewBox="0 0 30 31" fill="none" xmlns="http://www.w3.org/2000/svg">
<path d="M29.5312 15.2002C29.5312 23.2256 23.0254 29.7314 15 29.7314C6.97459 29.7314 0.46875 23.2256 0.46875 15.2002C0.46875 7.17479 6.97459 0.668945 15 0.668945C23.0254 0.668945 29.5312 7.17479 29.5312 15.2002ZM13.3192 22.8944L24.1004 12.1131C24.4665 11.747 24.4665 11.1534 24.1004 10.7873L22.7746 9.46152C22.4085 9.09537 21.8149 9.09537 21.4488 9.46152L12.6562 18.254L8.55123 14.149C8.18514 13.7829 7.59152 13.7829 7.22537 14.149L5.89957 15.4748C5.53348 15.8409 5.53348 16.4345 5.89957 16.8006L11.9933 22.8943C12.3595 23.2605 12.953 23.2605 13.3192 22.8944Z" fill="black"/>
</svg>
